<svg xmlns="http://www.w3.org/2000/svg" viewBox="0 0 1600 900" role="img" aria-label="Abstract blue and pink field">
  <defs>
    <linearGradient id="sky" x1="0" x2="1" y1="0" y2="1">
      <stop offset="0" stop-color="#e0f2fe" />
      <stop offset="0.45" stop-color="#7dd3fc" />
      <stop offset="1" stop-color="#f0abfc" />
    </linearGradient>
    <radialGradient id="glow" cx="70%" cy="25%" r="55%">
      <stop offset="0" stop-color="#ffffff" stop-opacity="0.9" />
      <stop offset="1" stop-color="#ffffff" stop-opacity="0" />
    </radialGradient>
  </defs>
  <rect width="1600" height="900" fill="url(#sky)" />
  <rect width="1600" height="900" fill="url(#glow)" />
  <path d="M0 610 C 260 520 360 760 650 650 C 940 540 1120 640 1600 500 L 1600 900 L 0 900 Z" fill="#0f172a" opacity="0.22" />
  <path d="M0 700 C 280 610 460 800 760 720 C 1070 640 1260 740 1600 620 L 1600 900 L 0 900 Z" fill="#0284c7" opacity="0.32" />
  <path d="M0 785 C 360 700 520 870 850 790 C 1160 715 1350 820 1600 760 L 1600 900 L 0 900 Z" fill="#86198f" opacity="0.28" />
</svg>
